<svg xmlns="http://www.w3.org/2000/svg" xmlns:xlink="http://www.w3.org/1999/xlink" stroke="#000" stroke-linecap="square" stroke-miterlimit="10" viewBox="0 0 85 85" style="fill: rgb(0, 0, 0);" original_string_length="3390"><g><defs><linearGradient gradientTransform="translate(22.701 24.385) scale(57.4601)" gradientUnits="userSpaceOnUse" id="__id116_syle28fz02" spreadMethod="pad" x1="0" x2="1" y1="0" y2="0"><stop offset="0%" style="stop-color: rgb(0, 254, 251);"/><stop offset="100%" style="stop-color: rgb(23, 134, 249);"/></linearGradient><linearGradient gradientTransform="matrix(38.77015 0 0 38.77015 5 34.28)" gradientUnits="userSpaceOnUse" id="__id117_syle28fz02" spreadMethod="pad" x1="0" x2="1" y1="0" y2="0"><stop offset="0%" style="stop-color: rgb(0, 254, 251);"/><stop offset="100%" style="stop-color: rgb(23, 134, 249);"/></linearGradient><linearGradient gradientTransform="scale(-28.20998) rotate(68.38 1.001 -1.965)" gradientUnits="userSpaceOnUse" id="__id118_syle28fz02" spreadMethod="pad" x1="0" x2="1" y1="0" y2="0"><stop offset="0%" style="stop-color: rgb(0, 254, 251);"/><stop offset="100%" style="stop-color: rgb(23, 134, 249);"/></linearGradient><linearGradient gradientTransform="rotate(112.49 13.659 48.245) scale(27.1725)" gradientUnits="userSpaceOnUse" id="__id119_syle28fz02" spreadMethod="pad" x1="0" x2="1" y1="0" y2="0"><stop offset="0%" style="stop-color: rgb(0, 254, 251);"/><stop offset="100%" style="stop-color: rgb(23, 134, 249);"/></linearGradient><linearGradient gradientTransform="translate(36.44 42.24) scale(10.88147)" gradientUnits="userSpaceOnUse" id="__id120_syle28fz02" spreadMethod="pad" x1="0" x2="1" y1="0" y2="0"><stop offset="0%" style="stop-color: rgb(0, 254, 251);"/><stop offset="100%" style="stop-color: rgb(23, 134, 249);"/></linearGradient></defs><g stroke="none" style="fill: url(&quot;#__id116_syle28fz02&quot;);"><path d="M75.79 43.77l-5.35-6.1c0 0 2.09-7.19 3.02-13.53.61-4.18-.17-7.2-3.85-10.13-1.46-1.16-3.53-1.63-5.73-1.63-3.34 0-7 1.07-9.32 2.38C50.71 16.93 22.7 30.98 22.7 30.98S44.52 12.5 52.47 8.07C56.21 5.98 59.88 5.03 63.3 5h.27c3.73.03 7.16 1.17 10.05 3.15 5.6 3.85 7.69 11.45 5.94 19.9s-3.76 15.72-3.76 15.72Zm0 0" style="fill: inherit;"/><path d="M30.98 63.01c0 0-18.48-21.82-22.91-29.77C5.96 29.46 5.01 25.76 5 22.31H5v-.06c.01-3.77 1.15-7.24 3.15-10.16 2.96-4.31 8.15-6.54 14.23-6.54l5.67.61C36.5 7.91 43.77 9.92 43.77 9.92l-6.1 5.35c0 0-7.19-2.09-13.53-3.02l-2.35-.19c-3.02 0-5.43 1.09-7.77 4.04-2.93 3.68-1.42 11.2.75 15.05S30.98 63.01 30.98 63.01Zm0 0" style="fill: url(&quot;#__id117_syle28fz02&quot;);"/><path d="M21.66 80.95c-3.76-.01-7.21-1.15-10.12-3.15-5.6-3.85-7.69-11.46-5.93-19.9S9.37 42.18 9.37 42.18l5.35 6.1c0 0-2.09 7.19-3.02 13.53-.61 4.18.17 7.2 3.85 10.13 1.46 1.16 3.53 1.63 5.73 1.63 3.34 0 7-1.07 9.32-2.38 3.85-2.17 31.85-16.22 31.85-16.22S40.64 73.45 32.7 77.88c-3.77 2.1-7.46 3.06-10.89 3.07Zm0 0" style="fill: url(&quot;#__id118_syle28fz02&quot;);"/><path d="M62.78 80.4l-5.67-.61c-8.44-1.75-15.72-3.76-15.72-3.76l6.1-5.35c0 0 7.19 2.09 13.53 3.02l2.35.19c3.02 0 5.43-1.09 7.77-4.04 2.93-3.68 1.42-11.2-.75-15.05S54.18 22.94 54.18 22.94 72.66 44.76 77.09 52.71c2.1 3.77 3.06 7.46 3.07 10.89v.14h0c-.01 3.76-1.15 7.21-3.15 10.12-2.96 4.31-8.15 6.54-14.23 6.54Zm0 0" style="fill: url(&quot;#__id119_syle28fz02&quot;);"/><path d="M41.88 47.68l-.82-.04c-2.42-.54-4.04-2.15-4.48-4.15-.79-3.55 1.89-6.69 5.3-6.69h.41l.84.14c2 .44 3.61 2.06 4.06 4.06.79 3.55-1.89 6.68-5.3 6.68Zm0 0" style="fill: url(&quot;#__id120_syle28fz02&quot;);"/></g></g></svg>